<?xml version="1.0" encoding="iso-8859-1"?>
<!-- Generator: Adobe Illustrator 19.0.0, SVG Export Plug-In . SVG Version: 6.00 Build 0)  -->
<svg version="1.1" id="Layer_1" xmlns="http://www.w3.org/2000/svg" xmlns:xlink="http://www.w3.org/1999/xlink" x="0px" y="0px"
	 viewBox="0 0 128.5 128.5" style="enable-background:new 0 0 128.5 128.5;" xml:space="preserve">
<g id="_x38_">
	<g>
		<circle style="fill:#EFCB6C;" cx="64.25" cy="64.25" r="64.25"/>
	</g>
	<g>
		<polygon style="fill:#FFFFFF;" points="100,104.667 29,104.667 29,24.547 33.935,19.667 96.129,19.667 100,24.547 		"/>
		<polygon style="fill:#86C8CE;" points="100,108.667 64.705,108.667 29,108.667 29,23.667 64.705,23.667 100,23.667 		"/>
		<polyline style="fill:#A4DAE3;" points="64,108.667 29,108.667 29,23.667 64,23.667 		"/>
		<rect x="47" y="32.667" style="fill:#FFFFFF;" width="36" height="18"/>
		<path style="fill:#86C8CE;" d="M38,42.375c0,1.266-1.026,2.291-2.291,2.291h-9.417c-1.266,0-2.291-1.026-2.291-2.291v-0.417
			c0-1.266,1.026-2.291,2.291-2.291h9.417c1.266,0,2.291,1.026,2.291,2.291V42.375z"/>
		<path style="fill:#86C8CE;" d="M38,51.375c0,1.266-1.026,2.291-2.291,2.291h-9.417c-1.266,0-2.291-1.026-2.291-2.291v-0.417
			c0-1.266,1.026-2.291,2.291-2.291h9.417c1.266,0,2.291,1.026,2.291,2.291V51.375z"/>
		<path style="fill:#86C8CE;" d="M37,86.375c0,1.266-1.026,2.291-2.291,2.291h-9.417c-1.266,0-2.291-1.026-2.291-2.291v-0.417
			c0-1.266,1.026-2.291,2.291-2.291h9.417c1.266,0,2.291,1.026,2.291,2.291V86.375z"/>
		<path style="fill:#86C8CE;" d="M37,93.375c0,1.266-1.026,2.291-2.291,2.291h-9.417c-1.266,0-2.291-1.026-2.291-2.291v-0.417
			c0-1.266,1.026-2.291,2.291-2.291h9.417c1.266,0,2.291,1.026,2.291,2.291V93.375z"/>
		<g>
			<path style="fill:#D68E0F;" d="M112.158,44.622l-1.755-1.043c-0.159-0.095-0.367-0.041-0.461,0.118l-6.147,10.348
				c-0.094,0.159-0.042,0.366,0.117,0.461l1.756,1.043c0.159,0.094,0.366,0.042,0.461-0.118l6.147-10.348
				C112.37,44.924,112.317,44.716,112.158,44.622z"/>
			<path style="fill:#F3A50D;" d="M111.297,44.036l-0.894-0.457c-0.159-0.095-0.367-0.041-0.461,0.118l-6.147,10.348
				c-0.094,0.159-0.042,0.366,0.117,0.461l0.886,0.529"/>
			<path style="fill:#F3A50D;" d="M92.112,69.691c-0.468-1.115-0.448-1.598-0.45-2.044c-0.002-0.269,0.076-0.625,0.25-1.147
				c0.265-0.791,3.226-6.021,6.058-10.779c2.315-3.887,4.559-7.483,5.208-8.134c1.572-1.578,2.79-0.825,3.824-0.185l0.006,0.003
				c0.034,0.021,0.078,0.048,0.25,0.151c0.279,0.165,0.371,0.526,0.205,0.804c-0.165,0.278-0.526,0.37-0.804,0.205l0,0l-0.268-0.167
				l-0.377,0.775c-0.695-0.898-1.702-0.292-2.43,0.926c-0.783,1.312-1.682,2.822-3.953,6.636c-2.796,4.696-5.265,9.162-6.219,10.552
				 M107.003,47.403l0.003,0.002L107.003,47.403z"/>
			<path style="fill:#BA5B54;" d="M110.389,49.155l-1.573-0.934l-1.548-0.92c-0.283-0.168-0.652-0.074-0.819,0.208l-24.17,40.88
				c-0.658,1.112-7.195,13.664-6.553,14.045l0.827,0.491l0.677,0.402c0.552,0.328,8.541-11.36,9.199-12.474l24.17-40.88
				C110.766,49.691,110.672,49.323,110.389,49.155z"/>
			<path style="fill:#EA7663;" d="M108.816,48.221l-1.548-0.92c-0.283-0.168-0.652-0.074-0.819,0.208l-24.17,40.88
				c-0.658,1.112-7.195,13.664-6.553,14.045l0.827,0.491"/>
			<polygon style="fill:#134A56;" points="75.725,102.435 75.203,105.421 77.228,103.328 			"/>
		</g>
		<path style="fill:#FFFFFF;" d="M66,58.667H49c-1.105,0-2-0.896-2-2s0.895-2,2-2h17c1.104,0,2,0.896,2,2S67.104,58.667,66,58.667z"
			/>
		<path style="fill:#FFFFFF;" d="M81,58.667h-9c-1.105,0-2-0.896-2-2s0.895-2,2-2h9c1.104,0,2,0.896,2,2S82.104,58.667,81,58.667z"
			/>
		<path style="fill:#FFFFFF;" d="M81,65.667H64c-1.105,0-2-0.896-2-2c0-1.104,0.895-2,2-2h17c1.104,0,2,0.896,2,2
			C83,64.771,82.104,65.667,81,65.667z"/>
		<path style="fill:#FFFFFF;" d="M58,65.667h-9c-1.105,0-2-0.896-2-2c0-1.104,0.895-2,2-2h9c1.104,0,2,0.896,2,2
			C60,64.771,59.104,65.667,58,65.667z"/>
	</g>
</g>
<g>
</g>
<g>
</g>
<g>
</g>
<g>
</g>
<g>
</g>
<g>
</g>
<g>
</g>
<g>
</g>
<g>
</g>
<g>
</g>
<g>
</g>
<g>
</g>
<g>
</g>
<g>
</g>
<g>
</g>
</svg>
